<?xml version="1.0" encoding="UTF-8"?>
<svg id="Layer_1" xmlns="http://www.w3.org/2000/svg" version="1.1" viewBox="0 0 16 16">
  <!-- Generator: Adobe Illustrator 29.5.1, SVG Export Plug-In . SVG Version: 2.1.0 Build 141)  -->
  <defs>
    <style>
      .st0 {
        fill: #00aeef;
      }
    </style>
  </defs>
  <path class="st0" d="M13.88,5.92c.24-.04.37-.18.4-.41s-.07-.39-.29-.49l-2.12-.93.63,2.1,1.38-.26ZM10.46,7.68l.71-.56-1.34-4.66c-.03-.1-.09-.16-.18-.18s-.17-.02-.26,0l-1.56.45c-.11.04-.19.12-.24.23s-.04.23,0,.33l2.85,4.39ZM6.05,11.12l.71-.56-3.57-3.83c-.11-.09-.22-.13-.33-.1s-.21.09-.27.19l-.82,1.41c-.06.09-.08.18-.07.26s.06.15.15.21l4.2,2.43ZM4.23,13.45l.59-1.27-1.88-1.12.39,2.28c.04.24.18.37.41.4.23.03.39-.07.49-.29M7.96,9.63l1.31-1.02-3.48-5.38c-.05-.1-.13-.16-.25-.18s-.22.01-.31.08l-1.61,1.26c-.08.06-.13.15-.14.27s.02.21.1.29l4.38,4.68ZM4.92,14.88c-.42.33-.89.44-1.41.34-.52-.1-.95-.36-1.28-.78-.09-.12-.17-.25-.22-.39s-.1-.29-.14-.43l-.64-3.52c-.45-.29-.75-.68-.9-1.19s-.1-.98.15-1.43l.82-1.41c.1-.16.21-.3.34-.43s.27-.23.43-.31c-.09-.4-.08-.79.02-1.18s.3-.7.62-.95l1.61-1.26c.32-.25.68-.37,1.08-.37s.78.09,1.14.27c.12-.13.26-.24.41-.33s.31-.17.49-.23l1.56-.45c.52-.15,1.01-.1,1.47.17s.75.65.87,1.17l3.26,1.48c.14.06.28.14.4.24s.23.21.34.34c.35.45.49.94.42,1.48s-.32.98-.77,1.33c-.11.09-.23.16-.36.22s-.27.11-.41.14l-1.27.27-6.82,5.32-.48,1.1c-.07.17-.18.32-.31.45s-.27.25-.41.35"/>
</svg>