<?xml version="1.0" encoding="UTF-8"?>
<svg id="Layer_1" xmlns="http://www.w3.org/2000/svg" version="1.1" viewBox="0 0 16 16">
  <!-- Generator: Adobe Illustrator 29.4.0, SVG Export Plug-In . SVG Version: 2.1.0 Build 152)  -->
  <defs>
    <style>
      .st0 {
        fill: #fff200;
        stroke: #231f20;
        stroke-miterlimit: 10;
        stroke-width: .25px;
      }
    </style>
  </defs>
  <path class="st0" d="M4.21,8.95c0,.52-.42.95-.95.95s-.95-.42-.95-.95.42-.95.95-.95.95.42.95.95M13.69,8.95c0,.52-.42.95-.95.95s-.95-.42-.95-.95.42-.95.95-.95.95.42.95.95M6.1,8c-.52,0-.95.42-.95.95s.42.95.95.95h3.79c.52,0,.95-.42.95-.95s-.42-.95-.95-.95h-3.79ZM5.02,4.47l-.91,1.82c-.12.24-.02.53.22.65.08.04.16.05.25.05.86-.07,2.23-.16,3.41-.16s2.55.09,3.41.16c.27.02.5-.18.52-.45,0-.09,0-.17-.05-.25l-.91-1.81c-.08-.16-.24-.26-.42-.26h-5.1c-.18,0-.34.1-.42.26"/>
  <path class="st0" d="M2.8,3.75c.37-.87,1.23-1.44,2.18-1.44h6.03c.95,0,1.81.57,2.18,1.44l.75,1.75c.07.17.2.3.36.38.47.24.81.68.92,1.2l.32,1.59c.03.15.05.31.05.46v.39c0,.77-.37,1.46-.95,1.89v1.79c0,.26-.21.47-.47.47h-1.9c-.26,0-.47-.21-.47-.47v-1.27c-1.23.05-2.6.08-3.79.08s-2.57-.04-3.79-.08v1.27c0,.26-.21.47-.47.47h-1.9c-.26,0-.47-.21-.47-.47v-1.79c-.58-.43-.95-1.12-.95-1.89v-.39c0-.16.02-.31.05-.46l.32-1.59c.1-.52.44-.96.91-1.2.16-.08.29-.22.36-.38l.75-1.75h0ZM4.98,3.26c-.57,0-1.08.34-1.31.86l-.75,1.75c-.16.37-.45.68-.81.86-.21.11-.36.3-.41.53l-.32,1.59c-.02.09-.03.19-.03.28v.39c0,.75.59,1.37,1.34,1.41,1.47.07,3.59.15,5.3.15s3.83-.08,5.3-.15c.75-.04,1.34-.66,1.34-1.41v-.39c0-.09,0-.19-.03-.28l-.32-1.59c-.05-.23-.2-.43-.41-.53-.36-.18-.65-.48-.81-.86l-.75-1.75c-.22-.52-.74-.86-1.31-.86h-6.03Z"/>
</svg>