<?xml version="1.0" encoding="UTF-8"?>
<svg id="Layer_1" xmlns="http://www.w3.org/2000/svg" version="1.1" viewBox="0 0 16 16">
  <!-- Generator: Adobe Illustrator 29.5.1, SVG Export Plug-In . SVG Version: 2.1.0 Build 141)  -->
  <defs>
    <style>
      .st0 {
        fill: #00aeef;
      }
    </style>
  </defs>
  <path class="st0" d="M4.08,8.99c0,.54-.43.98-.98.98s-.98-.43-.98-.98.43-.98.98-.98.98.43.98.98M13.86,8.99c0,.54-.43.98-.98.98s-.98-.43-.98-.98.43-.98.98-.98.98.43.98.98M6.03,8.01c-.54,0-.98.43-.98.98s.43.98.98.98h3.91c.54,0,.98-.43.98-.98s-.43-.98-.98-.98c0,0-3.91,0-3.91,0ZM4.92,4.37l-.94,1.88c-.12.25-.02.55.23.67.08.04.16.05.26.05.89-.07,2.3-.16,3.52-.16s2.63.09,3.52.16c.28.02.52-.19.54-.46,0-.09,0-.18-.05-.26l-.94-1.87c-.08-.16-.25-.27-.43-.27h-5.26c-.19,0-.35.1-.43.27"/>
  <path class="st0" d="M2.63,3.63c.38-.9,1.27-1.48,2.25-1.48h6.22c.98,0,1.87.59,2.25,1.48l.77,1.8c.07.18.21.31.37.39.48.25.84.7.95,1.24l.33,1.64c.03.15.05.32.05.47v.4c0,.79-.38,1.51-.98,1.95v1.85c0,.27-.22.48-.48.48h-1.96c-.27,0-.48-.22-.48-.48v-1.31c-1.27.05-2.68.08-3.91.08s-2.65-.04-3.91-.08v1.31c0,.27-.22.48-.48.48h-1.96c-.27,0-.48-.22-.48-.48v-1.85c-.6-.44-.98-1.15-.98-1.95v-.4c0-.16.02-.32.05-.47l.33-1.64c.1-.54.45-.99.94-1.24.16-.08.3-.23.37-.39l.77-1.8h-.02ZM4.88,3.12c-.59,0-1.11.35-1.35.89l-.77,1.8c-.16.38-.46.7-.84.89-.22.11-.37.31-.42.55l-.33,1.64c-.02.09-.03.2-.03.29v.4c0,.77.61,1.41,1.38,1.45,1.52.07,3.7.15,5.46.15s3.95-.08,5.46-.15c.77-.04,1.38-.68,1.38-1.45v-.4c0-.09,0-.2-.03-.29l-.33-1.64c-.05-.24-.21-.44-.42-.55-.37-.19-.67-.49-.84-.89l-.77-1.8c-.23-.54-.76-.89-1.35-.89h-6.22.01Z"/>
</svg>