<?xml version="1.0" encoding="UTF-8"?>
<svg id="Layer_1" xmlns="http://www.w3.org/2000/svg" version="1.1" viewBox="0 0 16 16">
  <!-- Generator: Adobe Illustrator 29.5.1, SVG Export Plug-In . SVG Version: 2.1.0 Build 141)  -->
  <defs>
    <style>
      .st0 {
        fill: #00aeef;
      }
    </style>
  </defs>
  <g id="_x32_069a460dcf28295e231f3111e041a3f">
    <path class="st0" d="M10.46,8.74c-.32-1.55-1.9-3.37-3.65-3.78-1.83-.41-3.04-.42-4.47.53-.42.28-1.12.77-1.78,1.48v2.39c.92-2.02,3.04-3.7,5.41-3.08,4.02,1.04,3.39,3.86,2.9,5.02-.87,2.07-4.06,2.96-5.04.98-1.07-2.15,1.31-2.51,1.31-2.51,0,0-.62.6.16,1.39.53.56,1.56.06,1.92-.92.31-.85-.36-2.03-1.83-2.15-1.24-.11-3.08.82-3.27,2.71-.18,1.78.61,2.52,1.77,3.31,1.15.79,3.62,1.08,5.03-.3,1.54-1.5,1.98-3.04,1.55-5.1v.02ZM.54.33v4.7c.7-.62,1.29-.94,1.31-.95,2.57-1.49,4.83-.75,6.16-.33,2.1.67,3.75,2.32,4.47,4.02.84,1.98.11,5.76-2.7,7.67-.12.08-.25.16-.37.22h6.04V.33H.54ZM.54,13.14v1.82c.09.08.19.14.28.2-.08-.03-.18-.08-.28-.13v.65h2.63c-.19-.1-.37-.21-.52-.32-.77-.52-1.59-1.27-2.09-2.19h-.01Z"/>
  </g>
</svg>