<?xml version="1.0" encoding="UTF-8"?>
<svg id="Layer_1" xmlns="http://www.w3.org/2000/svg" version="1.1" viewBox="0 0 16 16">
  <!-- Generator: Adobe Illustrator 29.5.1, SVG Export Plug-In . SVG Version: 2.1.0 Build 141)  -->
  <defs>
    <style>
      .st0 {
        fill: red;
        stroke: #231f20;
        stroke-miterlimit: 10;
        stroke-width: .25px;
      }
    </style>
  </defs>
  <g id="_x32_069a460dcf28295e231f3111e041a3f">
    <path class="st0" d="M10.2,8.67c-.29-1.39-1.71-3.03-3.28-3.39-1.64-.37-2.73-.38-4.01.48-.38.25-1.01.69-1.6,1.33v2.15c.83-1.81,2.73-3.32,4.86-2.77,3.61.93,3.04,3.47,2.6,4.51-.78,1.86-3.65,2.66-4.53.88-.96-1.93,1.18-2.25,1.18-2.25,0,0-.56.54.14,1.25.48.5,1.4.05,1.72-.83.28-.76-.32-1.82-1.64-1.93-1.11-.1-2.77.74-2.94,2.43-.16,1.6.55,2.26,1.59,2.97,1.03.71,3.25.97,4.52-.27,1.38-1.35,1.78-2.73,1.39-4.58v.02ZM1.3,1.12v4.22c.63-.56,1.16-.84,1.18-.85,2.31-1.34,4.34-.67,5.53-.3,1.89.6,3.37,2.08,4.01,3.61.75,1.78.1,5.17-2.42,6.89-.11.07-.22.14-.33.2h5.42V1.12H1.3ZM1.3,12.62v1.63c.08.07.17.13.25.18-.07-.03-.16-.07-.25-.12v.58h2.36c-.17-.09-.33-.19-.47-.29-.69-.47-1.43-1.14-1.88-1.97h0Z"/>
  </g>
</svg>