<?xml version="1.0" encoding="UTF-8"?>
<svg id="Layer_1" xmlns="http://www.w3.org/2000/svg" version="1.1" viewBox="0 0 100 20">
  <!-- Generator: Adobe Illustrator 29.4.0, SVG Export Plug-In . SVG Version: 2.1.0 Build 152)  -->
  <defs>
    <style>
      .st0 {
        fill: #fff200;
      }

      .st1 {
        isolation: isolate;
      }

      .st2 {
        fill: none;
        stroke: #231f20;
        stroke-miterlimit: 10;
        stroke-width: .25px;
      }
    </style>
  </defs>
  <g class="st1">
    <g class="st1">
      <path class="st0" d="M13.33,13.01s-.05.06-.16.06c-.17,0-.43,0-.76-.02s-.59-.02-.76-.02-.41,0-.73.02-.56.02-.72.02c-.13,0-.22-.05-.26-.15-.07-.18-.17-.44-.3-.8-.13-.32-.31-.81-.55-1.46-.05-.17-.11-.25-.15-.25-.04,0-.05.06-.05.19,0,.27.03.66.08,1.2s.08.92.08,1.17c0,.09-.04.13-.12.13-.03,0-.08,0-.15-.02-.34-.05-.84-.07-1.52-.07-.15,0-.37,0-.67.02s-.52.02-.67.02c-.13,0-.19-.06-.19-.17,0-.44.02-1.09.07-1.97.05-.88.07-1.53.07-1.97,0-1.12-.05-2.41-.16-3.89v-.08c-.01-.08.02-.12.11-.13,0,0,.07,0,.22,0,.43,0,1.07,0,1.93-.02s1.5-.02,1.93-.02c.91,0,1.67.19,2.26.58.69.46,1.04,1.12,1.04,1.99,0,.56-.08,1.02-.25,1.36s-.47.67-.91.98c-.09.07-.14.13-.14.19,0,.05.24.56.73,1.55.48.98.73,1.5.73,1.54ZM10.02,7.8c0-.44-.32-.66-.97-.66-.16,0-.24.24-.24.73,0,.06,0,.15.01.26s.01.21.01.26.08.09.24.09c.63,0,.95-.23.95-.69Z"/>
      <path class="st0" d="M19.58,9.95c0,.41-.13.64-.38.7-.09.02-.6.09-1.52.19l-1.37.16c.05.13.18.24.39.32.17.06.34.09.52.09s.41-.05.71-.15.46-.15.51-.15c.06,0,.11.04.15.11.06.13.15.33.28.59,0,0,.07.11.22.32.13.19.2.29.2.31,0,.04-.03.09-.08.13-.43.42-1.18.63-2.24.63s-1.81-.24-2.38-.72c-.61-.51-.92-1.26-.92-2.26,0-.89.3-1.64.89-2.25s1.33-.91,2.22-.91c.77,0,1.44.29,1.99.86s.83,1.25.83,2.02ZM17.24,9.53c0-.12-.05-.23-.14-.33s-.19-.16-.31-.16c-.14,0-.26.05-.38.15s-.17.22-.17.35c0,.09.06.13.19.13.07,0,.17,0,.3-.03.16-.02.26-.04.3-.04.14-.01.21-.04.21-.07Z"/>
      <path class="st0" d="M27,7.78s0,.08-.02.15c-.17.89-.25,1.61-.25,2.15,0,.42.03,1.04.09,1.84l.06.9c0,.16-.08.24-.25.25h-1.05c-.13,0-.32,0-.58.02s-.45.02-.58.02c-.16,0-.24-.08-.25-.23s-.04-.23-.08-.23c.02,0-.15.09-.51.28s-.66.28-.9.28c-.77,0-1.39-.3-1.88-.9-.45-.56-.68-1.23-.68-2.02,0-.92.26-1.68.77-2.29.43-.5,1.12-.76,2.07-.76.2,0,.48.06.84.19s.54.19.53.19c.03,0,.06-.07.08-.21s.08-.21.16-.21c.13,0,.51.06,1.15.19.61.12,1.01.21,1.18.26.07.02.11.06.11.12ZM24.08,10.15c0-.36-.18-.54-.53-.54-.16,0-.29.05-.4.15s-.16.23-.16.39.05.28.16.38.24.15.4.15.28-.05.38-.15.15-.23.15-.38Z"/>
      <path class="st0" d="M30.87,4.97s0,.07-.01.15c-.11,1.25-.17,2.46-.17,3.64,0,.43,0,1.08.02,1.95.01.87.02,1.52.02,1.95,0,.17,0,.26,0,.27-.02.09-.08.13-.19.13-.14,0-.34,0-.61-.02s-.48-.02-.61-.02-.34,0-.61.02-.48.02-.61.02c-.11,0-.17-.04-.19-.13v-.27c0-.43,0-1.08.02-1.95.01-.87.02-1.52.02-1.95s-.03-1.05-.08-1.89-.08-1.47-.08-1.89c0-.08.02-.13.06-.15.02-.01.06-.02.11-.02.16,0,.39,0,.69.02s.54.02.69.02.38,0,.69-.02.54-.02.69-.02c.12,0,.18.05.18.16Z"/>
      <path class="st0" d="M36.12,10.83c0,.16-.02.41-.06.74s-.06.58-.06.75c0,.14-.02.24-.05.28s-.12.11-.26.18c-.46.25-1.04.37-1.74.37-1.34,0-2-.44-2-1.31,0-.21,0-.52.03-.94.02-.42.03-.73.03-.94,0-.16-.09-.25-.28-.25s-.28-.06-.28-.18c0-.09,0-.22.02-.4s.02-.31.02-.4c0-.1,0-.25-.02-.45s-.02-.34-.02-.44c0-.09.08-.16.24-.21s.24-.13.24-.24v-.73c0-.55,0-.78,0-.69.02-.38.07-.56.17-.56s.29.03.58.1c.31.07.52.12.63.12.07,0,.28.04.62.08.25.04.46.05.62.05.11,0,.16.04.16.13,0,.14-.01.35-.04.64s-.04.5-.04.64c0,.11.06.17.17.17.12,0,.31,0,.56-.02s.43-.02.56-.02c.09,0,.14.04.14.11,0,.12-.01.3-.04.54s-.04.43-.04.56,0,.31.01.56.01.44.01.56c0,.1-.06.15-.18.15-.11,0-.28,0-.51-.01s-.4-.01-.51-.01-.17.06-.17.19c0,.34.16.57.48.69.19.07.49.11.91.11.07,0,.11.02.11.07Z"/>
      <path class="st0" d="M39.89,7.44s0,.08-.01.15c-.14,1.47-.21,2.4-.21,2.78,0,.26,0,.66.02,1.18s.02.92.02,1.19c0,.13,0,.2-.01.22-.02.07-.08.1-.18.1-.14,0-.34,0-.61-.02s-.48-.02-.61-.02-.34,0-.61.02-.48.02-.61.02c-.1,0-.16-.03-.18-.1,0-.02-.01-.09-.01-.22,0-.27,0-.66.02-1.19s.02-.92.02-1.18c0-.59-.07-1.52-.2-2.78-.01-.07-.02-.13-.02-.16,0-.1.06-.15.18-.15.16,0,.39.03.71.08s.55.08.71.08.4-.03.71-.08.55-.08.71-.08c.12,0,.18.05.18.16ZM39.83,5.96c0,.82-.5,1.23-1.5,1.23-.43,0-.77-.1-1.04-.29-.3-.22-.46-.53-.46-.94s.16-.7.47-.94c.29-.22.63-.33,1.03-.33s.74.11,1.03.33c.32.24.47.55.47.94Z"/>
      <path class="st0" d="M50.67,8.57c0,.23,0,.57-.03,1.03s-.03.8-.03,1.03c0,.25,0,.62.01,1.12s.01.87.01,1.11c0,.16-.07.24-.22.24-.13,0-.33,0-.59-.03s-.46-.03-.59-.03c-.14,0-.34,0-.61.02s-.48.02-.61.02c-.15,0-.23-.1-.23-.3,0-.18,0-.45.02-.8s.02-.62.02-.8c0-.14,0-.35-.02-.64s-.02-.5-.02-.64c0-.22-.1-.33-.31-.33s-.35.17-.39.52c0,.04,0,.29,0,.77,0,.22,0,.56.01,1s.01.78.01,1c0,.16-.07.24-.21.24s-.34,0-.61-.03-.47-.03-.6-.03-.33,0-.59.02-.46.02-.59.02c-.15,0-.23-.1-.23-.3,0-.18,0-.45.01-.8s.01-.62.01-.8c0-.14,0-.35-.01-.63s-.01-.49-.01-.64c0-.22-.12-.33-.35-.33s-.34.11-.34.32v2.91c0,.2-.1.3-.29.3-.12,0-.29,0-.53-.03s-.42-.03-.53-.03c-.13,0-.33,0-.6.02s-.47.02-.6.02c-.17,0-.25-.08-.25-.25v-2.77c0-.98-.07-1.71-.21-2.2-.01-.04-.02-.08-.02-.11,0-.07.04-.12.11-.15.38-.05.84-.11,1.38-.19.05,0,.25-.06.62-.16.29-.08.48-.12.58-.12.09,0,.17.12.25.37s.14.37.16.37c-.03,0,.16-.11.56-.34s.75-.34,1.06-.34c.88,0,1.45.3,1.71.91.52-.61,1.14-.91,1.86-.91.46,0,.88.12,1.23.35.41.27.61.62.61,1.06Z"/>
      <path class="st0" d="M57.33,9.95c0,.41-.13.64-.38.7-.09.02-.6.09-1.52.19l-1.37.16c.05.13.18.24.39.32.17.06.34.09.52.09s.41-.05.71-.15.46-.15.51-.15c.06,0,.11.04.15.11.06.13.15.33.28.59,0,0,.07.11.22.32.13.19.2.29.2.31,0,.04-.03.09-.08.13-.43.42-1.18.63-2.24.63s-1.81-.24-2.38-.72c-.61-.51-.92-1.26-.92-2.26,0-.89.3-1.64.89-2.25s1.33-.91,2.22-.91c.77,0,1.44.29,1.99.86s.83,1.25.83,2.02ZM55,9.53c0-.12-.05-.23-.14-.33s-.19-.16-.31-.16c-.14,0-.26.05-.38.15s-.17.22-.17.35c0,.09.06.13.19.13.07,0,.17,0,.3-.03.16-.02.26-.04.3-.04.14-.01.21-.04.21-.07Z"/>
      <path class="st0" d="M68.72,13.01s-.05.06-.16.06c-.17,0-.43,0-.76-.02s-.59-.02-.76-.02-.41,0-.73.02-.56.02-.72.02c-.13,0-.22-.05-.26-.15-.07-.18-.17-.44-.3-.8-.13-.32-.31-.81-.55-1.46-.05-.17-.11-.25-.15-.25-.04,0-.05.06-.05.19,0,.27.03.66.08,1.2s.08.92.08,1.17c0,.09-.04.13-.12.13-.03,0-.08,0-.15-.02-.34-.05-.84-.07-1.52-.07-.15,0-.37,0-.67.02s-.52.02-.67.02c-.13,0-.19-.06-.19-.17,0-.44.02-1.09.07-1.97.05-.88.07-1.53.07-1.97,0-1.12-.05-2.41-.16-3.89v-.08c-.01-.08.02-.12.11-.13,0,0,.07,0,.22,0,.43,0,1.07,0,1.93-.02s1.5-.02,1.93-.02c.91,0,1.67.19,2.26.58.69.46,1.04,1.12,1.04,1.99,0,.56-.08,1.02-.25,1.36s-.47.67-.91.98c-.09.07-.14.13-.14.19,0,.05.24.56.73,1.55.48.98.73,1.5.73,1.54ZM65.4,7.8c0-.44-.32-.66-.97-.66-.16,0-.24.24-.24.73,0,.06,0,.15.01.26s.01.21.01.26.08.09.24.09c.63,0,.95-.23.95-.69Z"/>
      <path class="st0" d="M75.12,10.12c0,.9-.29,1.64-.87,2.22s-1.32.88-2.21.88-1.61-.29-2.2-.86-.88-1.29-.88-2.16.28-1.67.85-2.27c.58-.61,1.33-.91,2.23-.91s1.64.29,2.21.87.87,1.32.87,2.22ZM72.58,10.12c0-.15-.05-.28-.16-.39s-.23-.16-.38-.16-.28.05-.38.16-.16.24-.16.39.05.28.16.39.23.16.38.16.29-.05.39-.16.15-.24.15-.39Z"/>
      <path class="st0" d="M82.45,7.78s0,.08-.02.15c-.17.89-.25,1.61-.25,2.15,0,.42.03,1.04.09,1.84l.06.9c0,.16-.08.24-.25.25h-1.05c-.13,0-.32,0-.58.02s-.45.02-.58.02c-.16,0-.24-.08-.25-.23s-.04-.23-.08-.23c.02,0-.15.09-.51.28s-.66.28-.9.28c-.77,0-1.39-.3-1.88-.9-.45-.56-.68-1.23-.68-2.02,0-.92.26-1.68.77-2.29.43-.5,1.12-.76,2.07-.76.2,0,.48.06.84.19s.54.19.53.19c.03,0,.06-.07.08-.21s.08-.21.16-.21c.13,0,.51.06,1.15.19.61.12,1.01.21,1.18.26.07.02.11.06.11.12ZM79.53,10.15c0-.36-.18-.54-.53-.54-.16,0-.29.05-.4.15s-.16.23-.16.39.05.28.16.38.24.15.4.15.28-.05.38-.15.15-.23.15-.38Z"/>
      <path class="st0" d="M89.96,4.76s-.02.46-.06,1.41c-.07,1.54-.1,2.63-.1,3.26,0,1.88.03,3.01.08,3.4,0,.05.01.09.01.12,0,.08-.03.13-.09.15.02,0-.43-.01-1.35-.01-.12,0-.31,0-.56.02s-.43.02-.56.02c-.07,0-.11-.06-.12-.17s-.04-.17-.07-.17c.03,0-.14.07-.51.22s-.68.22-.92.22c-.86,0-1.54-.28-2.02-.84-.46-.53-.69-1.23-.69-2.11s.22-1.61.66-2.13c.47-.56,1.14-.84,2.02-.84.31,0,.71.13,1.2.38.04,0,.06-.05.06-.16v-1.35c0-.12-.01-.31-.04-.56s-.04-.43-.04-.55c0-.13.04-.19.11-.19.24,0,.71-.03,1.41-.08.12-.01.37-.05.73-.11.32-.05.55-.08.7-.08.09,0,.13.06.13.18ZM86.95,10.22c0-.16-.05-.29-.16-.4s-.24-.16-.4-.16-.29.05-.4.16-.16.24-.16.4.05.29.16.4.24.16.4.16.29-.05.4-.16.16-.24.16-.4Z"/>
      <path class="st0" d="M94.65,8.35s-.15.2-.46.51-.46.56-.46.74c0,.17.12.41.35.72s.35.65.35,1.02c0,.25-.05.49-.16.71-.06.12-.2.33-.4.62-.14.2-.32.42-.55.69-.31.36-.52.54-.61.54-.05,0-.13-.03-.22-.09-.83-.59-1.48-1.01-1.93-1.24-.09-.04-.13-.08-.13-.12,0-.02.17-.23.51-.64s.51-.74.51-.99c0-.18-.13-.4-.39-.65s-.39-.54-.39-.86c0-.36.21-.83.63-1.39.32-.43.67-.82,1.07-1.18.06-.06.12-.09.16-.09.05,0,.11.03.17.1.26.27.87.76,1.81,1.46.08.06.12.11.12.15Z"/>
    </g>
    <g class="st1">
      <path class="st2" d="M13.33,13.01s-.05.06-.16.06c-.17,0-.43,0-.76-.02s-.59-.02-.76-.02-.41,0-.73.02-.56.02-.72.02c-.13,0-.22-.05-.26-.15-.07-.18-.17-.44-.3-.8-.13-.32-.31-.81-.55-1.46-.05-.17-.11-.25-.15-.25-.04,0-.05.06-.05.19,0,.27.03.66.08,1.2s.08.92.08,1.17c0,.09-.04.13-.12.13-.03,0-.08,0-.15-.02-.34-.05-.84-.07-1.52-.07-.15,0-.37,0-.67.02s-.52.02-.67.02c-.13,0-.19-.06-.19-.17,0-.44.02-1.09.07-1.97.05-.88.07-1.53.07-1.97,0-1.12-.05-2.41-.16-3.89v-.08c-.01-.08.02-.12.11-.13,0,0,.07,0,.22,0,.43,0,1.07,0,1.93-.02s1.5-.02,1.93-.02c.91,0,1.67.19,2.26.58.69.46,1.04,1.12,1.04,1.99,0,.56-.08,1.02-.25,1.36s-.47.67-.91.98c-.09.07-.14.13-.14.19,0,.05.24.56.73,1.55.48.98.73,1.5.73,1.54ZM10.02,7.8c0-.44-.32-.66-.97-.66-.16,0-.24.24-.24.73,0,.06,0,.15.01.26s.01.21.01.26.08.09.24.09c.63,0,.95-.23.95-.69Z"/>
      <path class="st2" d="M19.58,9.95c0,.41-.13.64-.38.7-.09.02-.6.09-1.52.19l-1.37.16c.05.13.18.24.39.32.17.06.34.09.52.09s.41-.05.71-.15.46-.15.51-.15c.06,0,.11.04.15.11.06.13.15.33.28.59,0,0,.07.11.22.32.13.19.2.29.2.31,0,.04-.03.09-.08.13-.43.42-1.18.63-2.24.63s-1.81-.24-2.38-.72c-.61-.51-.92-1.26-.92-2.26,0-.89.3-1.64.89-2.25s1.33-.91,2.22-.91c.77,0,1.44.29,1.99.86s.83,1.25.83,2.02ZM17.24,9.53c0-.12-.05-.23-.14-.33s-.19-.16-.31-.16c-.14,0-.26.05-.38.15s-.17.22-.17.35c0,.09.06.13.19.13.07,0,.17,0,.3-.03.16-.02.26-.04.3-.04.14-.01.21-.04.21-.07Z"/>
      <path class="st2" d="M27,7.78s0,.08-.02.15c-.17.89-.25,1.61-.25,2.15,0,.42.03,1.04.09,1.84l.06.9c0,.16-.08.24-.25.25h-1.05c-.13,0-.32,0-.58.02s-.45.02-.58.02c-.16,0-.24-.08-.25-.23s-.04-.23-.08-.23c.02,0-.15.09-.51.28s-.66.28-.9.28c-.77,0-1.39-.3-1.88-.9-.45-.56-.68-1.23-.68-2.02,0-.92.26-1.68.77-2.29.43-.5,1.12-.76,2.07-.76.2,0,.48.06.84.19s.54.19.53.19c.03,0,.06-.07.08-.21s.08-.21.16-.21c.13,0,.51.06,1.15.19.61.12,1.01.21,1.18.26.07.02.11.06.11.12ZM24.08,10.15c0-.36-.18-.54-.53-.54-.16,0-.29.05-.4.15s-.16.23-.16.39.05.28.16.38.24.15.4.15.28-.05.38-.15.15-.23.15-.38Z"/>
      <path class="st2" d="M30.87,4.97s0,.07-.01.15c-.11,1.25-.17,2.46-.17,3.64,0,.43,0,1.08.02,1.95.01.87.02,1.52.02,1.95,0,.17,0,.26,0,.27-.02.09-.08.13-.19.13-.14,0-.34,0-.61-.02s-.48-.02-.61-.02-.34,0-.61.02-.48.02-.61.02c-.11,0-.17-.04-.19-.13v-.27c0-.43,0-1.08.02-1.95.01-.87.02-1.52.02-1.95s-.03-1.05-.08-1.89-.08-1.47-.08-1.89c0-.08.02-.13.06-.15.02-.01.06-.02.11-.02.16,0,.39,0,.69.02s.54.02.69.02.38,0,.69-.02.54-.02.69-.02c.12,0,.18.05.18.16Z"/>
      <path class="st2" d="M36.12,10.83c0,.16-.02.41-.06.74s-.06.58-.06.75c0,.14-.02.24-.05.28s-.12.11-.26.18c-.46.25-1.04.37-1.74.37-1.34,0-2-.44-2-1.31,0-.21,0-.52.03-.94.02-.42.03-.73.03-.94,0-.16-.09-.25-.28-.25s-.28-.06-.28-.18c0-.09,0-.22.02-.4s.02-.31.02-.4c0-.1,0-.25-.02-.45s-.02-.34-.02-.44c0-.09.08-.16.24-.21s.24-.13.24-.24v-.73c0-.55,0-.78,0-.69.02-.38.07-.56.17-.56s.29.03.58.1c.31.07.52.12.63.12.07,0,.28.04.62.08.25.04.46.05.62.05.11,0,.16.04.16.13,0,.14-.01.35-.04.64s-.04.5-.04.64c0,.11.06.17.17.17.12,0,.31,0,.56-.02s.43-.02.56-.02c.09,0,.14.04.14.11,0,.12-.01.3-.04.54s-.04.43-.04.56,0,.31.01.56.01.44.01.56c0,.1-.06.15-.18.15-.11,0-.28,0-.51-.01s-.4-.01-.51-.01-.17.06-.17.19c0,.34.16.57.48.69.19.07.49.11.91.11.07,0,.11.02.11.07Z"/>
      <path class="st2" d="M39.89,7.44s0,.08-.01.15c-.14,1.47-.21,2.4-.21,2.78,0,.26,0,.66.02,1.18s.02.92.02,1.19c0,.13,0,.2-.01.22-.02.07-.08.1-.18.1-.14,0-.34,0-.61-.02s-.48-.02-.61-.02-.34,0-.61.02-.48.02-.61.02c-.1,0-.16-.03-.18-.1,0-.02-.01-.09-.01-.22,0-.27,0-.66.02-1.19s.02-.92.02-1.18c0-.59-.07-1.52-.2-2.78-.01-.07-.02-.13-.02-.16,0-.1.06-.15.18-.15.16,0,.39.03.71.08s.55.08.71.08.4-.03.71-.08.55-.08.71-.08c.12,0,.18.05.18.16ZM39.83,5.96c0,.82-.5,1.23-1.5,1.23-.43,0-.77-.1-1.04-.29-.3-.22-.46-.53-.46-.94s.16-.7.47-.94c.29-.22.63-.33,1.03-.33s.74.11,1.03.33c.32.24.47.55.47.94Z"/>
      <path class="st2" d="M50.67,8.57c0,.23,0,.57-.03,1.03s-.03.8-.03,1.03c0,.25,0,.62.01,1.12s.01.87.01,1.11c0,.16-.07.24-.22.24-.13,0-.33,0-.59-.03s-.46-.03-.59-.03c-.14,0-.34,0-.61.02s-.48.02-.61.02c-.15,0-.23-.1-.23-.3,0-.18,0-.45.02-.8s.02-.62.02-.8c0-.14,0-.35-.02-.64s-.02-.5-.02-.64c0-.22-.1-.33-.31-.33s-.35.17-.39.52c0,.04,0,.29,0,.77,0,.22,0,.56.01,1s.01.78.01,1c0,.16-.07.24-.21.24s-.34,0-.61-.03-.47-.03-.6-.03-.33,0-.59.02-.46.02-.59.02c-.15,0-.23-.1-.23-.3,0-.18,0-.45.01-.8s.01-.62.01-.8c0-.14,0-.35-.01-.63s-.01-.49-.01-.64c0-.22-.12-.33-.35-.33s-.34.11-.34.32v2.91c0,.2-.1.3-.29.3-.12,0-.29,0-.53-.03s-.42-.03-.53-.03c-.13,0-.33,0-.6.02s-.47.02-.6.02c-.17,0-.25-.08-.25-.25v-2.77c0-.98-.07-1.71-.21-2.2-.01-.04-.02-.08-.02-.11,0-.07.04-.12.11-.15.38-.05.84-.11,1.38-.19.05,0,.25-.06.62-.16.29-.08.48-.12.58-.12.09,0,.17.12.25.37s.14.37.16.37c-.03,0,.16-.11.56-.34s.75-.34,1.06-.34c.88,0,1.45.3,1.71.91.52-.61,1.14-.91,1.86-.91.46,0,.88.12,1.23.35.41.27.61.62.61,1.06Z"/>
      <path class="st2" d="M57.33,9.95c0,.41-.13.64-.38.7-.09.02-.6.09-1.52.19l-1.37.16c.05.13.18.24.39.32.17.06.34.09.52.09s.41-.05.71-.15.46-.15.51-.15c.06,0,.11.04.15.11.06.13.15.33.28.59,0,0,.07.11.22.32.13.19.2.29.2.31,0,.04-.03.09-.08.13-.43.42-1.18.63-2.24.63s-1.81-.24-2.38-.72c-.61-.51-.92-1.26-.92-2.26,0-.89.3-1.64.89-2.25s1.33-.91,2.22-.91c.77,0,1.44.29,1.99.86s.83,1.25.83,2.02ZM55,9.53c0-.12-.05-.23-.14-.33s-.19-.16-.31-.16c-.14,0-.26.05-.38.15s-.17.22-.17.35c0,.09.06.13.19.13.07,0,.17,0,.3-.03.16-.02.26-.04.3-.04.14-.01.21-.04.21-.07Z"/>
      <path class="st2" d="M68.72,13.01s-.05.06-.16.06c-.17,0-.43,0-.76-.02s-.59-.02-.76-.02-.41,0-.73.02-.56.02-.72.02c-.13,0-.22-.05-.26-.15-.07-.18-.17-.44-.3-.8-.13-.32-.31-.81-.55-1.46-.05-.17-.11-.25-.15-.25-.04,0-.05.06-.05.19,0,.27.03.66.08,1.2s.08.92.08,1.17c0,.09-.04.13-.12.13-.03,0-.08,0-.15-.02-.34-.05-.84-.07-1.52-.07-.15,0-.37,0-.67.02s-.52.02-.67.02c-.13,0-.19-.06-.19-.17,0-.44.02-1.09.07-1.97.05-.88.07-1.53.07-1.97,0-1.12-.05-2.41-.16-3.89v-.08c-.01-.08.02-.12.11-.13,0,0,.07,0,.22,0,.43,0,1.07,0,1.93-.02s1.5-.02,1.93-.02c.91,0,1.67.19,2.26.58.69.46,1.04,1.12,1.04,1.99,0,.56-.08,1.02-.25,1.36s-.47.67-.91.98c-.09.07-.14.13-.14.19,0,.05.24.56.73,1.55.48.98.73,1.5.73,1.54ZM65.4,7.8c0-.44-.32-.66-.97-.66-.16,0-.24.24-.24.73,0,.06,0,.15.01.26s.01.21.01.26.08.09.24.09c.63,0,.95-.23.95-.69Z"/>
      <path class="st2" d="M75.12,10.12c0,.9-.29,1.64-.87,2.22s-1.32.88-2.21.88-1.61-.29-2.2-.86-.88-1.29-.88-2.16.28-1.67.85-2.27c.58-.61,1.33-.91,2.23-.91s1.64.29,2.21.87.87,1.32.87,2.22ZM72.58,10.12c0-.15-.05-.28-.16-.39s-.23-.16-.38-.16-.28.05-.38.16-.16.24-.16.39.05.28.16.39.23.16.38.16.29-.05.39-.16.15-.24.15-.39Z"/>
      <path class="st2" d="M82.45,7.78s0,.08-.02.15c-.17.89-.25,1.61-.25,2.15,0,.42.03,1.04.09,1.84l.06.9c0,.16-.08.24-.25.25h-1.05c-.13,0-.32,0-.58.02s-.45.02-.58.02c-.16,0-.24-.08-.25-.23s-.04-.23-.08-.23c.02,0-.15.09-.51.28s-.66.28-.9.28c-.77,0-1.39-.3-1.88-.9-.45-.56-.68-1.23-.68-2.02,0-.92.26-1.68.77-2.29.43-.5,1.12-.76,2.07-.76.2,0,.48.06.84.19s.54.19.53.19c.03,0,.06-.07.08-.21s.08-.21.16-.21c.13,0,.51.06,1.15.19.61.12,1.01.21,1.18.26.07.02.11.06.11.12ZM79.53,10.15c0-.36-.18-.54-.53-.54-.16,0-.29.05-.4.15s-.16.23-.16.39.05.28.16.38.24.15.4.15.28-.05.38-.15.15-.23.15-.38Z"/>
      <path class="st2" d="M89.96,4.76s-.02.46-.06,1.41c-.07,1.54-.1,2.63-.1,3.26,0,1.88.03,3.01.08,3.4,0,.05.01.09.01.12,0,.08-.03.13-.09.15.02,0-.43-.01-1.35-.01-.12,0-.31,0-.56.02s-.43.02-.56.02c-.07,0-.11-.06-.12-.17s-.04-.17-.07-.17c.03,0-.14.07-.51.22s-.68.22-.92.22c-.86,0-1.54-.28-2.02-.84-.46-.53-.69-1.23-.69-2.11s.22-1.61.66-2.13c.47-.56,1.14-.84,2.02-.84.31,0,.71.13,1.2.38.04,0,.06-.05.06-.16v-1.35c0-.12-.01-.31-.04-.56s-.04-.43-.04-.55c0-.13.04-.19.11-.19.24,0,.71-.03,1.41-.08.12-.01.37-.05.73-.11.32-.05.55-.08.7-.08.09,0,.13.06.13.18ZM86.95,10.22c0-.16-.05-.29-.16-.4s-.24-.16-.4-.16-.29.05-.4.16-.16.24-.16.4.05.29.16.4.24.16.4.16.29-.05.4-.16.16-.24.16-.4Z"/>
      <path class="st2" d="M94.65,8.35s-.15.2-.46.51-.46.56-.46.74c0,.17.12.41.35.72s.35.65.35,1.02c0,.25-.05.49-.16.71-.06.12-.2.33-.4.62-.14.2-.32.42-.55.69-.31.36-.52.54-.61.54-.05,0-.13-.03-.22-.09-.83-.59-1.48-1.01-1.93-1.24-.09-.04-.13-.08-.13-.12,0-.02.17-.23.51-.64s.51-.74.51-.99c0-.18-.13-.4-.39-.65s-.39-.54-.39-.86c0-.36.21-.83.63-1.39.32-.43.67-.82,1.07-1.18.06-.06.12-.09.16-.09.05,0,.11.03.17.1.26.27.87.76,1.81,1.46.08.06.12.11.12.15Z"/>
    </g>
  </g>
</svg>